<svg viewBox="0 0 280.1 84.79" xmlns="http://www.w3.org/2000/svg"><path d="m154.97 0-1.08 8.31-.3 2.33h-32.07l.3-2.33 1.07-8.31z" fill="#00b96f"/><g fill="#fff"><path d="m63 74.22a9.4 9.4 0 0 0 9.48-8.46c0-.25 0-.49 0-.74a9.19 9.19 0 0 0 -6.78-8.87l-1.83-.62-40.44-13.53-.43-.18a21.45 21.45 0 0 1 -14.64-20.35c0-.74 0-1.47.11-2.19 0-.36.08-.72.14-1.07a.29.29 0 0 1 0-.09 21 21 0 0 1 2.67-7.48 20.29 20.29 0 0 1 1.58-2.33 21.38 21.38 0 0 1 16.95-8.31h83.85l-1.07 8.31-.3 2.33-62.6.11a8.87 8.87 0 0 0 -9 7.37 8 8 0 0 0 -.17 1.71 9.21 9.21 0 0 0 6.48 8.79h.05l2.63.87 40.52 13.51.61.2a21.47 21.47 0 0 1 14.28 23.07v.17a21.06 21.06 0 0 1 -21.2 18.35h-83.89l1.36-10.57z"/><path d="m152.63 18.12-7.26 56.1-1.37 10.57h-32.07l1.36-10.57 7.26-56.1z"/><path d="m232.68 74.18h.55a4.94 4.94 0 0 0 4.9-4.32l3.75-26.11 3.32-25.63 1-7.48.3-2.33 1.04-8.31h32.56l-1.1 8.31-.3 2.33-1 7.48-5.53 42.88-.76 6.07a20.81 20.81 0 0 1 -2.56 7.11 21.4 21.4 0 0 1 -16.14 10.57h-77a21.4 21.4 0 0 1 -16.14-10.57 20.27 20.27 0 0 1 -2.57-13.18l.34-2.75 5-40.11h31.83l-3.62 27.86-3 23.43a4.22 4.22 0 0 0 4.19 4.77h.55a4.94 4.94 0 0 0 4.9-4.32l1.58-12.19 5.12-39.58 1-7.48.3-2.33h31.59l-.3 2.33-1 7.48-3.83 27.89-3 23.43a4.16 4.16 0 0 0 4.1 4.77"/></g></svg>